<svg xmlns="http://www.w3.org/2000/svg" viewBox="0 0 16 16" shape-rendering="crispEdges">
  <rect width="16" height="16" fill="#0d1117"/>

  <!-- Crescent outline — dark -->
  <rect x="8" y="0" width="4" height="1" fill="#581c87"/>
  <rect x="6" y="1" width="5" height="1" fill="#581c87"/>
  <rect x="5" y="2" width="5" height="1" fill="#581c87"/>
  <rect x="4" y="3" width="4" height="1" fill="#581c87"/>
  <rect x="3" y="4" width="4" height="1" fill="#581c87"/>
  <rect x="2" y="5" width="4" height="1" fill="#581c87"/>
  <rect x="2" y="6" width="4" height="1" fill="#581c87"/>
  <rect x="1" y="7" width="4" height="1" fill="#581c87"/>
  <rect x="1" y="8" width="4" height="1" fill="#581c87"/>
  <rect x="2" y="9" width="4" height="1" fill="#581c87"/>
  <rect x="2" y="10" width="4" height="1" fill="#581c87"/>
  <rect x="3" y="11" width="4" height="1" fill="#581c87"/>
  <rect x="4" y="12" width="4" height="1" fill="#581c87"/>
  <rect x="5" y="13" width="5" height="1" fill="#581c87"/>
  <rect x="6" y="14" width="5" height="1" fill="#581c87"/>
  <rect x="8" y="15" width="4" height="1" fill="#581c87"/>

  <!-- Crescent fill — lavender -->
  <rect x="9" y="0" width="2" height="1" fill="#c084fc"/>
  <rect x="7" y="1" width="3" height="1" fill="#c084fc"/>
  <rect x="6" y="2" width="3" height="1" fill="#c084fc"/>
  <rect x="5" y="3" width="2" height="1" fill="#c084fc"/>
  <rect x="4" y="4" width="2" height="1" fill="#c084fc"/>
  <rect x="3" y="5" width="2" height="1" fill="#c084fc"/>
  <rect x="3" y="6" width="2" height="1" fill="#c084fc"/>
  <rect x="2" y="7" width="2" height="1" fill="#c084fc"/>
  <rect x="2" y="8" width="2" height="1" fill="#c084fc"/>
  <rect x="3" y="9" width="2" height="1" fill="#c084fc"/>
  <rect x="3" y="10" width="2" height="1" fill="#c084fc"/>
  <rect x="4" y="11" width="2" height="1" fill="#c084fc"/>
  <rect x="5" y="12" width="2" height="1" fill="#c084fc"/>
  <rect x="6" y="13" width="3" height="1" fill="#c084fc"/>
  <rect x="7" y="14" width="3" height="1" fill="#c084fc"/>
  <rect x="9" y="15" width="2" height="1" fill="#c084fc"/>

  <!-- Outer edge highlight — catching moonlight -->
  <rect x="9" y="0" width="2" height="1" fill="#d8b4fe"/>
  <rect x="7" y="1" width="2" height="1" fill="#d8b4fe"/>
  <rect x="6" y="2" width="2" height="1" fill="#d8b4fe"/>
  <rect x="5" y="3" width="1" height="1" fill="#d8b4fe"/>
  <rect x="4" y="4" width="1" height="1" fill="#d8b4fe"/>

  <!-- Stars — constellation -->
  <rect x="12" y="2" width="1" height="1" fill="#e9d5ff"/>
  <rect x="11" y="3" width="3" height="1" fill="#e9d5ff"/>
  <rect x="12" y="4" width="1" height="1" fill="#e9d5ff"/>

  <rect x="14" y="8" width="1" height="1" fill="#d8b4fe"/>

  <rect x="10" y="12" width="1" height="1" fill="#d8b4fe"/>
  <rect x="13" y="14" width="1" height="1" fill="#c084fc"/>
</svg>
